<?xml version="1.0" encoding="UTF-8" standalone="no"?>
<svg
   xmlns:dc="http://purl.org/dc/elements/1.1/"
   xmlns:cc="http://creativecommons.org/ns#"
   xmlns:rdf="http://www.w3.org/1999/02/22-rdf-syntax-ns#"
   xmlns:svg="http://www.w3.org/2000/svg"
   xmlns="http://www.w3.org/2000/svg"
   xmlns:sodipodi="http://sodipodi.sourceforge.net/DTD/sodipodi-0.dtd"
   xmlns:inkscape="http://www.inkscape.org/namespaces/inkscape"
   version="1.1"
   width="202.347"
   height="329.65591"
   id="svg102"
   viewBox="0 0 202.347 329.65591"
   sodipodi:docname="herb_uj.svg"
   inkscape:version="1.0.2 (e86c870879, 2021-01-15)">
  <metadata
     id="metadata108">
    <rdf:RDF>
      <cc:Work
         rdf:about="">
        <dc:format>image/svg+xml</dc:format>
        <dc:type
           rdf:resource="http://purl.org/dc/dcmitype/StillImage" />
        <dc:title></dc:title>
      </cc:Work>
    </rdf:RDF>
  </metadata>
  <defs
     id="defs106" />
  <sodipodi:namedview
     pagecolor="#ffffff"
     bordercolor="#666666"
     borderopacity="1"
     objecttolerance="10"
     gridtolerance="10"
     guidetolerance="10"
     inkscape:pageopacity="0"
     inkscape:pageshadow="2"
     inkscape:window-width="1920"
     inkscape:window-height="1016"
     id="namedview104"
     showgrid="false"
     inkscape:zoom="1.3757631"
     inkscape:cx="170.5124"
     inkscape:cy="112.82678"
     inkscape:window-x="0"
     inkscape:window-y="27"
     inkscape:window-maximized="1"
     inkscape:current-layer="svg102" />
  <g
     id="Layer1000"
     transform="translate(-210.2672,-166.4311)"
     style="fill:#000000">
    <path
       d="m 345.6264,424.6557 14.5686,18.6959 c 0,0 -10.2234,8.0104 -10.2333,7.998 l -14.641,-18.6693 z"
       style="fill:#000000;fill-rule:evenodd"
       id="path28" />
    <path
       d="m 259.0846,338.5879 c -2.8842,-0.9728 -6.7481,-0.6117 -9.5723,1.3933 -0.3676,0.2727 -1.0689,0.2165 -1.3209,0 -0.1111,-0.0893 -5.8879,-4.7367 -5.8879,-4.7367 l 31.5082,-24.6527 3.1717,6.8576 c 0.1585,0.3371 0.0539,0.9882 -0.2917,1.3045 -2.0945,1.8961 -3.5713,4.5235 -3.6277,8.8387 -0.0165,4.5386 2.9265,7.5773 3.9804,8.9929 -1.8933,1.4794 -8.3583,6.5577 -10.2589,8.049 -2.4871,-3.6 -4.4889,-5.248 -7.7009,-6.0466 z"
       style="fill:#000000;fill-rule:evenodd"
       id="path30" />
    <path
       d="m 351.697,461.4755 c 1.7584,2.101 4.9031,2.3907 6.7476,0.9754 l 10.2722,-8.0257 c 1.8335,-1.4327 2.4891,-4.4323 0.7427,-6.6705 l -1.4851,-1.9007 c -1.7864,-2.2872 -4.8149,-2.321 -6.6552,-0.8348 l -10.2625,7.9974 c -1.8629,1.4757 -2.3125,4.6171 -0.8867,6.505 z"
       style="fill:#000000;fill-rule:evenodd"
       id="path32" />
    <path
       d="m 321.4057,393.7975 16.8208,21.4132 -10.2112,7.9784 -14.8516,-18.8513 z m -37.5505,-48.244 26.8018,34.3366 -8.2428,10.5597 -28.8374,-36.8782 z"
       style="fill:#000000;fill-rule:evenodd"
       id="path34" />
    <path
       d="m 340.6779,416.4265 -12.1351,9.4801 c -2.8239,2.164 1.4465,7.858 4.3824,5.6095 l 12.1558,-9.4541 c 2.8054,-2.1917 -1.6246,-7.8063 -4.4031,-5.6355 z"
       style="fill:#000000;fill-rule:evenodd"
       id="path36" />
    <path
       d="m 279.1196,337.589 -12.1345,9.4802 c -2.8245,2.164 1.4459,7.8576 4.382,5.6089 l 12.1556,-9.4535 c 2.8051,-2.1921 -1.6243,-7.8069 -4.4031,-5.6356 z"
       style="fill:#000000;fill-rule:evenodd"
       id="path38" />
    <path
       d="m 240.4826,333.6727 -15.7136,-12.161 c -0.2421,-0.1904 -0.1749,-1.1296 0.7069,-0.9532 0.1457,0.0175 9.8286,0.915 9.8286,0.915 l -0.0683,-6.9971 c -0.0301,-0.4493 0.6403,-1.051 1.1069,-0.9034 0.0663,0.0134 6.7451,1.8613 6.7451,1.8613 l -3.2743,-14.9037 c -0.1514,-0.5789 0.6315,-1.2039 1.1897,-0.9434 0.008,5e-4 13.6071,6.8448 13.6071,6.8448 l -0.1029,-6.9588 c -0.0462,-0.4722 0.5882,-1.1126 1.2011,-0.9377 0.0827,0.0153 6.6653,1.8318 6.6653,1.8318 l 1.5092,-9.8178 c 0.0414,-0.8087 0.7682,-0.7535 0.902,-0.6098 0.0263,0.0502 8.1862,18.2206 8.1862,18.2206 z"
       style="fill:#000000;fill-rule:evenodd"
       id="path40" />
    <path
       d="m 278.7117,424.0913 -14.5689,18.6959 c 0,0 10.2237,8.0102 10.2336,7.9977 l 14.641,-18.669 z"
       style="fill:#000000;fill-rule:evenodd"
       id="path42" />
    <path
       d="m 364.8121,338.5879 c 2.8848,-0.9728 6.7484,-0.6114 9.5726,1.393 0.3674,0.2727 1.0692,0.2168 1.3215,3e-4 0.1108,-0.0893 5.6682,-4.5411 5.6682,-4.5411 l -31.4465,-24.8069 -3.0143,6.8162 c -0.1585,0.3371 -0.0536,0.9882 0.2922,1.3045 2.094,1.8958 3.5708,4.5235 3.627,8.8387 0.0167,4.5386 -2.926,7.5773 -3.9802,8.9929 1.8933,1.4794 8.358,6.5577 10.2589,8.049 2.4871,-3.6 4.4889,-5.248 7.7006,-6.0466 z"
       style="fill:#000000;fill-rule:evenodd"
       id="path44" />
    <path
       d="m 272.641,460.9108 c -1.758,2.1014 -4.903,2.3908 -6.7481,0.9754 l -10.2714,-8.0257 c -1.8337,-1.4326 -2.4899,-4.4322 -0.7429,-6.6708 l 1.4851,-1.9003 c 1.7866,-2.287 4.8146,-2.321 6.6551,-0.8348 l 10.2623,7.9974 c 1.8629,1.476 2.3131,4.617 0.887,6.5049 z"
       style="fill:#000000;fill-rule:evenodd"
       id="path46" />
    <path
       d="m 340.0418,345.5535 -54.3716,69.6572 10.2112,7.9784 54.4389,-69.6175 z"
       style="fill:#000000;fill-rule:evenodd"
       id="path48" />
    <path
       d="m 283.4858,416.0852 12.1346,9.4802 c 2.8241,2.1642 -1.446,7.8582 -4.3821,5.6094 l -12.1552,-9.4541 c -2.8061,-2.1914 1.6236,-7.8063 4.4027,-5.6355 z"
       style="fill:#000000;fill-rule:evenodd"
       id="path50" />
    <path
       d="m 344.7774,337.589 12.1348,9.4805 c 2.8239,2.1637 -1.4462,7.8573 -4.3821,5.6086 l -12.1558,-9.4535 c -2.8054,-2.1921 1.6246,-7.8066 4.4031,-5.6356 z"
       style="fill:#000000;fill-rule:evenodd"
       id="path52" />
    <path
       d="m 383.1426,333.9468 15.986,-12.4351 c 0.2412,-0.1904 0.174,-1.1296 -0.7075,-0.9532 -0.1457,0.0175 -9.828,0.915 -9.828,0.915 l 0.0683,-6.9971 c 0.0297,-0.4493 -0.6409,-1.051 -1.1067,-0.9034 -0.0669,0.0134 -6.7456,1.8613 -6.7456,1.8613 l 3.274,-14.9037 c 0.1514,-0.5789 -0.6312,-1.2042 -1.1899,-0.9434 -0.008,5e-4 -13.6069,6.8448 -13.6069,6.8448 l 0.1029,-6.9588 c 0.0459,-0.4722 -0.5879,-1.1126 -1.2002,-0.9377 -0.0833,0.0153 -6.6659,1.8315 -6.6659,1.8315 l -1.5098,-9.8175 c -0.0411,-0.809 -0.7673,-0.7535 -0.9014,-0.6098 -0.0264,0.0502 -8.2658,18.7269 -8.2658,18.7269 z"
       style="fill:#000000;fill-rule:evenodd"
       id="path54" />
    <path
       d="m 311.4369,496.0865 c -55.8772,0.003 -101.1717,-45.2888 -101.1697,-101.1617 l 0.0108,-120.1921 2.6903,-0.007 196.9532,-0.008 2.6907,0.005 0.002,120.1952 C 412.6122,450.7908 367.3146,496.085 311.437,496.087 Z m 0,-5.3807 c 52.9063,-0.002 95.7942,-42.8876 95.7962,-95.7884 l -0.002,-114.8193 -191.5724,0.008 -0.0105,114.819 c -0.002,52.9007 42.8828,95.7827 95.7887,95.7807 z"
       style="fill:#000000;fill-rule:evenodd"
       id="path56" />
    <path
       d="m 253.4729,263.7641 c 0,0 -28.662,-77.3876 -28.7102,-77.4632 -0.1536,-1.8307 0.8521,-1.552 1.8698,-1.1727 l 1.1395,0.5697 c 3.4628,1.7501 6.967,2.9038 10.6271,3.8894 3.8633,0.8728 6.9633,1.3468 9.2832,5.0273 1.1568,2.2277 1.0533,3.9367 0.432,6.4749 -0.1721,0.7517 0.5694,0.2072 0.9054,-0.582 2.8335,-4.4234 4.9252,-6.2558 10.938,-6.6163 5.0723,-0.303 9.2648,1.4218 11.4684,6.7325 1.5633,4.419 -0.1046,8.5315 -4.0813,11.9265 -0.6829,1.0163 -0.8198,1.3845 -0.6259,2.6246 0.0728,0.8751 2.2306,1.9012 3.0325,1.9744 0.7143,0.064 -5.4255,7.9171 -11.429,2.4239 -1.0468,-2.5912 -1.1557,-3.8345 -0.7163,-7.0776 0.2338,-2.2053 -3.8503,-3.2524 -4.8266,1.2178 -1.3283,7.5994 2.4109,14.1877 7.2275,17.5396 4.2939,2.1909 10.048,1.8976 13.4447,-0.8328 1.8383,-1.5848 2.6731,-2.2484 2.9872,-5.8892 -1.8088,-0.9828 -3.0688,-1.8902 -3.6437,-4.0354 -1.1123,-4.1519 0.686,-7.7341 4.8377,-8.8458 4.151,-1.1126 8.0438,2.0698 8.0438,6.3677 0,1.9925 -1.2013,4.1171 -2.4324,5.4938 1.8108,5.2705 5.311,5.1325 9.1194,5.2867 5.0986,0.2814 12.8463,-3.0668 13.022,-15.5189 -0.1153,-2.247 -1.921,-10.137 -5.1352,-10.3093 -2.0781,0.0139 -2.6354,1.6673 -1.8085,3.2162 0.6389,1.0525 1.2243,1.4318 1.1894,3.9452 -1.2095,5.8437 -9.9757,5.3275 -10.0562,5.0851 4.9751,-7.3888 -8.7398,-8.7913 -8.2304,-17.5742 0.3691,-6.2904 4.2259,-8.5589 7.5081,-9.6029 3.5411,-0.883 6.6447,-0.559 9.6347,1.0454 0.9094,0.464 1.4193,0.9244 2.5674,2.0715 0.1187,0.1582 0.6207,0.3104 0.3724,-0.248 -0.087,-0.231 -0.2729,-0.6109 -0.6244,-1.3932 -1.2334,-2.8092 -0.7096,-6.4735 1.1194,-9.0717 2.1934,-2.939 5.377,-6.0602 6.8921,-9.4284 0.4076,-0.9062 1.3368,-3.4752 1.9103,-4.2035 0.2225,-0.1972 0.4547,-0.3322 0.6948,-0.3801 0.265,0.0527 0.5215,0.2118 0.767,0.4431 0.5709,0.7322 1.51,3.2488 1.9746,4.2741 1.5239,3.3641 4.6041,6.3558 6.7978,9.2948 1.8289,2.5982 2.3527,6.2625 1.12,9.0717 -0.233,0.5768 -0.6373,1.0729 -0.7237,1.3036 -0.1636,0.3819 0.1633,0.3634 0.3016,0.1834 1.612,-1.3439 1.5123,-1.2192 2.7377,-1.9173 2.9891,-1.6044 6.0931,-1.9284 9.6341,-1.0454 3.2819,1.044 7.1388,3.3125 7.5081,9.6029 0.5097,8.7829 -13.2052,10.1854 -8.2304,17.5742 -0.0805,0.2424 -8.8463,0.7586 -10.0564,-5.0851 -0.0346,-2.5134 0.5507,-2.8927 1.1899,-3.9452 0.8269,-1.5489 0.2696,-3.2023 -1.8088,-3.2162 -3.2147,0.1723 -5.0195,8.0623 -5.1352,10.3093 0.1758,12.4521 7.9231,15.8003 13.0218,15.5189 3.8086,-0.1542 7.3089,-0.0162 9.1196,-5.2867 -1.2316,-1.3767 -2.4324,-3.5013 -2.4324,-5.4938 0,-4.2979 3.8928,-7.4803 8.0442,-6.3677 4.151,1.1117 5.9496,4.6939 4.837,8.8458 -0.5749,2.1452 -1.8351,3.0526 -3.6436,4.0354 0.3143,3.6408 1.1491,4.3044 2.988,5.8892 3.3961,2.7304 9.1505,3.0237 13.4435,0.8328 4.8167,-3.3519 8.5561,-9.9402 7.2284,-17.5396 -0.9765,-4.4702 -5.0607,-3.4231 -4.8268,-1.2178 0.4388,3.2431 0.3305,4.4864 -0.7166,7.0776 -6.0038,5.4932 -12.1431,-2.3599 -11.4285,-2.4239 0.8017,-0.0732 2.9594,-1.0993 3.0322,-1.9744 0.1942,-1.2401 0.0567,-1.6083 -0.6256,-2.6246 -3.9767,-3.395 -5.6449,-7.5075 -4.0816,-11.9265 2.2031,-5.3107 6.3961,-7.0355 11.4679,-6.7325 6.0128,0.3605 8.1051,2.1929 10.9386,6.6163 0.2112,0.3232 0.9156,2.1218 1.3756,1.2476 -0.3705,-2.7207 -1.4306,-5.3754 0.3223,-8.0521 2.3196,-3.6808 5.059,-3.2429 8.9227,-4.1157 3.66,-0.9856 6.8479,-2.0024 10.3104,-3.7527 l 1.4726,-0.6444 c 1.1962,-0.828 2.3465,-0.828 1.8536,1.1107 -0.0493,0.0756 -28.7104,77.4632 -28.7104,77.4632 z"
       style="fill:#000000;fill-rule:evenodd"
       id="path58" />
  </g>
</svg>
